<svg width="48" height="48" viewBox="0 0 48 48" fill="none" xmlns="http://www.w3.org/2000/svg">
<path d="M24.9643 17.3333H17.25C13.5221 17.3333 10.5 14.3486 10.5 10.6667C10.5 6.98476 13.5221 4 17.25 4H24.9643V17.3333Z" fill="#E64A19"/>
<path d="M24 30.6673H17.25C13.5221 30.6673 10.5 27.6826 10.5 24.0007C10.5 20.3187 13.5221 17.334 17.25 17.334H24V30.6673Z" fill="#7C4DFF"/>
<path d="M17.25 43.9993C13.5221 43.9993 10.5 41.0146 10.5 37.3327C10.5 33.6508 13.5221 30.666 17.25 30.666H24V37.3327C24 41.0146 20.9779 43.9993 17.25 43.9993Z" fill="#66BB6A"/>
<path d="M30.75 17.3333H24V4H30.75C34.4779 4 37.5 6.98476 37.5 10.6667C37.5 14.3486 34.4779 17.3333 30.75 17.3333Z" fill="#FF7043"/>
<path d="M30.75 30.6673C34.4779 30.6673 37.5 27.6825 37.5 24.0007C37.5 20.3188 34.4779 17.334 30.75 17.334C27.0221 17.334 24 20.3188 24 24.0007C24 27.6825 27.0221 30.6673 30.75 30.6673Z" fill="#29B6F6"/>
</svg>
