<svg width="48" height="48" viewBox="0 0 48 48" fill="none" xmlns="http://www.w3.org/2000/svg">
<path d="M4 18.4762C4 13.409 4 10.8755 4.98613 8.94009C5.85356 7.23767 7.23767 5.85356 8.94009 4.98613C10.8755 4 13.409 4 18.4762 4H29.5238C34.591 4 37.1245 4 39.0599 4.98613C40.7623 5.85356 42.1464 7.23767 43.0139 8.94009C44 10.8755 44 13.409 44 18.4762V29.5238C44 34.591 44 37.1245 43.0139 39.0599C42.1464 40.7623 40.7623 42.1464 39.0599 43.0139C37.1245 44 34.591 44 29.5238 44H18.4762C13.409 44 10.8755 44 8.94009 43.0139C7.23767 42.1464 5.85356 40.7623 4.98613 39.0599C4 37.1245 4 34.591 4 29.5238V18.4762Z" fill="#49021F"/>
<path d="M17.703 15.7079V33.2389C17.703 33.4226 17.6225 33.5143 17.4615 33.5142H14.2146C14.0713 33.5142 13.9998 33.4224 14 33.2389V15.7079C14 15.5612 14.0805 15.4878 14.2415 15.4877H17.4883C17.6115 15.4697 17.7205 15.5815 17.703 15.7079Z" fill="#FF3366"/>
<path d="M27.3094 33.7893C26.0743 33.8086 24.8505 33.5453 23.7271 33.0187C21.342 31.8865 20.3056 29.3808 20.3059 26.7989C20.2853 24.2234 21.6493 21.7693 23.8747 20.5515C25.4108 19.6788 27.2178 19.4571 28.9462 19.6158V14.1941C28.9462 14.0659 28.9999 14.0014 29.1072 14.0014H32.4882C32.5806 13.9879 32.6624 14.0718 32.6492 14.1665V30.4317C32.6492 31.1028 32.7157 31.7715 32.7565 32.4407C32.7631 32.5551 32.697 32.6681 32.5955 32.716C31.7233 33.0891 30.8148 33.3658 29.8854 33.5416C29.0356 33.7025 28.1735 33.7854 27.3094 33.7893ZM28.9462 30.3766V22.8633C26.5064 22.1855 24.1159 24.0482 24.1162 26.6337C24.0572 29.3416 26.4715 31.119 28.9462 30.3766Z" fill="#FF3366"/>
</svg>
