<svg width="48" height="48" viewBox="0 0 48 48" fill="none" xmlns="http://www.w3.org/2000/svg">
<path d="M43.9385 32.5308C43.956 32.355 43.9697 32.1789 43.9794 32.0025C43.9915 31.7923 31.3872 19.7988 31.3872 19.7988H31.0859C31.0859 19.7988 43.861 33.3135 43.9385 32.5308Z" fill="url(#paint0_linear_1061_956)"/>
<path d="M17.046 28.3696C17.0121 28.4452 16.9772 28.5203 16.9411 28.5948C16.5393 29.4353 22.5658 35.3435 23.0504 34.6256C23.0728 34.5942 23.0951 34.5608 23.1169 34.5294C23.1415 34.4915 23.1655 34.4556 23.1898 34.4177C23.5778 33.8275 17.2181 27.986 17.0463 28.3696H17.046Z" fill="url(#paint1_linear_1061_956)"/>
<path d="M25.562 36.6777C25.5451 36.7156 25.4235 36.9215 25.3125 37.03C25.294 37.0675 31.196 42.9379 31.196 42.9379H31.727C31.7276 42.9379 26.187 36.9263 25.562 36.6781V36.6777Z" fill="url(#paint2_linear_1061_956)"/>
<path d="M43.9873 31.894C43.7113 38.0306 38.6489 42.937 32.4648 42.937H31.6287L25.4522 36.835C25.9631 36.1172 26.4309 35.3695 26.8532 34.596H32.4648C34.24 34.596 35.6838 33.1479 35.6838 31.3673C35.6838 29.5869 34.2397 28.1389 32.4648 28.1389H29.144C29.403 26.7744 29.5341 25.3885 29.5355 23.9995C29.5355 22.5624 29.3948 21.1599 29.1325 19.7972H31.1956L43.9515 32.4024C43.9662 32.2332 43.9781 32.0637 43.9873 31.894ZM7.35531 5H4V13.3414H7.35531C13.2151 13.3414 17.9842 18.122 17.9842 23.9995C17.9842 25.5983 17.6282 27.1162 16.9965 28.4789L23.1172 34.5276C25.1974 31.4131 26.3063 27.7482 26.303 23.9995C26.303 13.5233 17.8031 5 7.35595 5H7.35531Z" fill="url(#paint3_linear_1061_956)"/>
<path d="M32.4639 5.00064H18.877C22.2039 7.03842 24.9409 9.91422 26.8158 13.342H32.4639C34.2391 13.342 35.6829 14.7897 35.6829 16.5704C35.6829 18.3508 34.2388 19.7975 32.4639 19.7975H31.1947L43.9506 32.4031C43.982 32.0588 43.9982 31.7133 43.9992 31.3676C43.9992 28.5556 42.9929 25.9761 41.3226 23.9684C42.9933 21.9615 43.9992 19.3811 43.9992 16.5701C43.9992 10.1906 38.8249 5 32.4639 5V5.00064Z" fill="url(#paint4_linear_1061_956)"/>
<path d="M31.6287 42.9383H18.9751C21.5192 41.3591 23.7217 39.2842 25.4522 36.8363L31.6287 42.9383ZM23.1172 34.5289L16.9971 28.4805C15.306 32.1252 11.6212 34.6601 7.35563 34.6601H4V43.0005H7.35531C13.922 43.0005 19.7172 39.6322 23.1179 34.5295L23.1172 34.5289Z" fill="url(#paint5_linear_1061_956)"/>
<defs>
<linearGradient id="paint0_linear_1061_956" x1="20.4957" y1="7.89963" x2="44.2761" y2="33.5021" gradientUnits="userSpaceOnUse">
<stop stop-color="#F9A03C"/>
<stop offset="1" stop-color="#F7974E"/>
</linearGradient>
<linearGradient id="paint1_linear_1061_956" x1="0.643514" y1="12.5793" x2="23.2339" y2="34.4261" gradientUnits="userSpaceOnUse">
<stop stop-color="#F9A03C"/>
<stop offset="1" stop-color="#F7974E"/>
</linearGradient>
<linearGradient id="paint2_linear_1061_956" x1="10.9396" y1="20.3323" x2="30.7235" y2="43.5749" gradientUnits="userSpaceOnUse">
<stop stop-color="#F9A03C"/>
<stop offset="1" stop-color="#F7974E"/>
</linearGradient>
<linearGradient id="paint3_linear_1061_956" x1="9.04541" y1="3.9144" x2="35.6474" y2="40.8977" gradientUnits="userSpaceOnUse">
<stop stop-color="#F26D58"/>
<stop offset="1" stop-color="#F9A03C"/>
</linearGradient>
<linearGradient id="paint4_linear_1061_956" x1="22.7252" y1="6.28758" x2="50.269" y2="22.8745" gradientUnits="userSpaceOnUse">
<stop stop-color="#B84E51"/>
<stop offset="1" stop-color="#F68E48"/>
</linearGradient>
<linearGradient id="paint5_linear_1061_956" x1="17.0017" y1="31.8996" x2="17.3769" y2="49.8971" gradientUnits="userSpaceOnUse">
<stop stop-color="#F9A03C"/>
<stop offset="1" stop-color="#F7974E"/>
</linearGradient>
</defs>
</svg>
