<svg width="48" height="48" viewBox="0 0 48 48" fill="none" xmlns="http://www.w3.org/2000/svg">
<g clip-path="url(#clip0_1062_441)">
<path d="M14.8134 23.4731C14.8134 23.4731 14.8134 23.4775 14.8134 23.4801L14.2348 25.9684C14.2036 26.1092 14.0619 26.2124 13.8979 26.2124H13.1998C13.1481 26.2124 13.1017 26.2464 13.0874 26.2954C12.4429 28.4628 11.5701 29.9527 10.4174 30.8471C9.43671 31.6087 8.22784 31.9636 6.61333 31.9636C5.16195 31.9636 4.18396 31.5011 3.35397 30.5883C2.25741 29.3817 1.80363 27.4067 2.07822 25.0268C2.5739 20.559 4.91144 16.051 9.41446 16.051C10.7838 16.0388 11.859 16.4576 12.607 17.2934C13.3977 18.1774 13.7998 19.509 13.8015 21.2515C13.7988 21.4097 13.6661 21.5374 13.5065 21.5374H10.2079C10.0911 21.5374 9.98681 21.4333 9.98858 21.3188C9.96181 20.114 9.60077 19.5265 8.88399 19.5265C7.61984 19.5265 6.87365 21.2279 6.47782 22.1713C5.92508 23.4888 5.64425 24.9193 5.69952 26.3444C5.72538 27.008 5.83325 27.9409 6.4689 28.3273C7.03234 28.6701 7.83648 28.4427 8.32324 28.0633C8.81 27.6838 9.20138 27.0273 9.36629 26.4283C9.38946 26.3453 9.39129 26.2806 9.36898 26.2517C9.34581 26.222 9.28161 26.215 9.2326 26.215H8.38564C8.2947 26.215 8.20466 26.1739 8.15028 26.1074C8.10482 26.0515 8.08699 25.9824 8.10303 25.9142L8.68251 23.4215C8.71104 23.2939 8.82783 23.1977 8.97137 23.1803V23.1741H14.5299C14.5433 23.1741 14.5567 23.1741 14.5692 23.1767C14.7136 23.1951 14.8152 23.328 14.8125 23.4731H14.8134Z" fill="#0AE448"/>
<path d="M24.3847 20.6129C24.382 20.7685 24.2492 20.8962 24.0896 20.8962H21.0514C20.8525 20.8962 20.6858 20.7362 20.6858 20.5412C20.6858 19.6625 20.3791 19.235 19.7516 19.235C19.1239 19.235 18.7191 19.617 18.7076 20.2842C18.6942 21.0282 19.1185 21.704 20.3274 22.866C21.9188 24.3454 22.5562 25.656 22.5259 27.388C22.476 30.1893 20.5539 32 17.6297 32C16.1364 32 14.9953 31.6039 14.2367 30.8232C13.4664 30.0301 13.1133 28.8664 13.1874 27.3644C13.1909 27.2087 13.3228 27.082 13.4824 27.082H16.625C16.7106 27.082 16.7953 27.123 16.8524 27.193C16.9014 27.2533 16.9219 27.3277 16.9094 27.3976C16.8746 27.9397 16.97 28.3445 17.1849 28.5683C17.3231 28.7134 17.5148 28.7869 17.7545 28.7869C18.3349 28.7869 18.6755 28.3803 18.6879 27.6721C18.6987 27.0601 18.5034 26.5233 17.439 25.4383C16.0642 24.1067 14.8313 22.7314 14.8696 20.5683C14.8919 19.3145 15.3947 18.1674 16.2854 17.3386C17.2267 16.4625 18.515 16 20.01 16C21.5078 16.0105 22.6427 16.4337 23.3835 17.2581C24.0852 18.0398 24.423 19.1685 24.3856 20.6129H24.3847Z" fill="#0AE448"/>
<path d="M33.8025 31.4726L33.822 16.5752C33.8247 16.4187 33.6972 16.291 33.5377 16.291H28.835C28.6771 16.291 28.6076 16.4257 28.5621 16.5148L21.7537 31.3817V31.3844C21.7537 31.3844 21.7519 31.3869 21.751 31.3878C21.6753 31.5706 21.8188 31.7664 22.0185 31.7664H25.3054C25.4829 31.7664 25.6006 31.7131 25.6585 31.6021L26.3111 30.0475C26.3913 29.8403 26.4065 29.8211 26.6347 29.8211H29.7755C29.9939 29.8211 29.9984 29.8255 29.9948 30.0371L29.9244 31.4823C29.9217 31.6388 30.0492 31.7664 30.2088 31.7664H33.5296C33.6143 31.7664 33.6937 31.7315 33.7462 31.6694C33.7935 31.6143 33.8131 31.5444 33.8025 31.4726ZM27.9844 26.4986C27.9541 26.4986 27.93 26.4978 27.9105 26.4961C27.8614 26.4917 27.8284 26.4453 27.8409 26.3981C27.8471 26.3762 27.8561 26.3474 27.8694 26.3115L30.2248 20.5367C30.2453 20.4799 30.2712 20.4239 30.2979 20.3697C30.3363 20.2919 30.3826 20.2866 30.3969 20.3443C30.4094 20.3924 30.1267 26.2739 30.1267 26.2739C30.1045 26.4943 30.0947 26.5031 29.8754 26.5214L27.9871 26.4995H27.9827L27.9844 26.4986Z" fill="#0AE448"/>
<path d="M40.5016 16.2908H38.0054C37.8735 16.2908 37.7254 16.3599 37.6907 16.5155C37.6907 16.5155 34.2165 31.4629 34.2165 31.4646C34.2013 31.5336 34.2174 31.6019 34.2637 31.6587C34.3181 31.7251 34.4081 31.7662 34.4991 31.7662H37.6194C37.7869 31.7662 37.902 31.6849 37.9331 31.5433C37.9331 31.5433 38.3111 29.8541 38.3121 29.8489C38.3388 29.7169 38.2924 29.6146 38.173 29.5524C38.1168 29.5236 38.0606 29.4947 38.0054 29.4659L37.4643 29.187L36.9257 28.909C36.8562 28.8731 36.7867 28.8373 36.718 28.8014C36.6833 28.7839 36.6619 28.749 36.6628 28.7105C36.6636 28.6536 36.7118 28.6073 36.7697 28.6073L38.4796 28.6152C38.9914 28.6178 39.5031 28.582 40.0059 28.4902C43.547 27.8423 45.8988 25.0313 45.9666 21.2071C46.0245 17.9433 44.1862 16.2891 40.5043 16.2891L40.5016 16.2908ZM39.652 25.187H39.5852C39.4354 25.187 39.4086 25.1704 39.4041 25.1651C39.4015 25.1616 40.3902 20.86 40.3911 20.8539C40.416 20.7297 40.4152 20.658 40.3375 20.6161C40.2386 20.5618 38.7953 19.8073 38.7953 19.8073C38.7605 19.789 38.74 19.754 38.7409 19.7155C38.7417 19.6596 38.789 19.6132 38.847 19.6132H41.1293C41.8398 19.6351 42.2356 20.2646 42.2169 21.34C42.1839 23.2023 41.2906 25.1214 39.652 25.187Z" fill="#0AE448"/>
<path d="M43.0411 31.7659C43.5547 31.7659 43.9567 31.3785 43.9567 30.8566C43.9567 30.3346 43.5547 29.9473 43.0411 29.9473C42.5276 29.9473 42.1211 30.3346 42.1211 30.8566C42.1211 31.3785 42.5267 31.7659 43.0411 31.7659ZM42.3395 30.853C42.3395 30.4098 42.6078 30.1195 43.0411 30.1195C43.4744 30.1195 43.7383 30.4089 43.7383 30.853C43.7383 31.2972 43.4744 31.5892 43.0411 31.5892C42.6078 31.5892 42.3395 31.2999 42.3395 30.853ZM42.6391 31.3409H42.9305V30.9912H43.0153C43.2337 30.9912 43.1383 31.2999 43.1918 31.3409H43.494V31.326C43.4369 31.3112 43.5287 30.9239 43.2756 30.8828V30.8784C43.3986 30.853 43.478 30.7656 43.478 30.6345C43.478 30.4465 43.3397 30.345 43.1169 30.345H42.6373V31.3409H42.6391ZM42.9305 30.7805V30.547H43.0304C43.1303 30.547 43.1873 30.5776 43.1873 30.6633C43.1873 30.742 43.1303 30.7796 43.0304 30.7796H42.9305V30.7805Z" fill="#0AE448"/>
</g>
<defs>
<clipPath id="clip0_1062_441">
<rect width="44" height="16" fill="white" transform="translate(2 16)"/>
</clipPath>
</defs>
</svg>
