<svg width="48" height="48" viewBox="0 0 48 48" fill="none" xmlns="http://www.w3.org/2000/svg">
<path d="M4 44V4H44V44H4Z" fill="#F7DF1E"/>
<path d="M30.1525 33.9407C30.9214 35.1896 31.7569 36.3862 33.5269 36.3862C35.0136 36.3862 35.7936 35.6473 35.7936 34.6251C35.7936 33.4018 34.9869 32.9673 33.3514 32.2551L32.4547 31.8729C29.8669 30.7751 28.1458 29.3996 28.1458 26.494C28.1458 23.8162 30.1958 21.7785 33.3991 21.7785C35.6802 21.7785 37.3191 22.5685 38.5014 24.6373L35.708 26.4229C35.0936 25.3251 34.4291 24.8929 33.3991 24.8929C32.348 24.8929 31.6825 25.5562 31.6825 26.4229C31.6825 27.494 32.3491 27.9273 33.888 28.5907L34.7847 28.9729C37.8347 30.2718 39.5547 31.5985 39.5547 34.5807C39.5547 37.794 37.0169 39.5551 33.6103 39.5551C30.278 39.5551 28.3858 37.8829 27.3325 35.8129L30.1525 33.9407ZM17.2791 34.0318C17.8414 35.0385 18.6958 35.8129 19.9247 35.8129C21.1003 35.8129 21.7769 35.3485 21.7769 33.5429V21.7773H25.4803V34.1118C25.4803 37.8529 23.3103 39.5551 20.1414 39.5551C17.278 39.5551 15.2114 37.6151 14.3691 35.8129L17.2791 34.0318Z" fill="#000001"/>
</svg>
