<svg width="48" height="48" viewBox="0 0 48 48" fill="none" xmlns="http://www.w3.org/2000/svg">
<path d="M42 4H6L9.17647 39.7895L24 44L38.8235 39.7895L42 4Z" fill="#E65100"/>
<path d="M24 7.1582V40.7372L35.8588 37.3687L38.5059 7.1582H24Z" fill="#FF6D00"/>
<path d="M24 25.0535V20.8429H33.1059L32.3647 32.9482L24 35.685V31.264L28.3412 29.7903L28.6588 25.0535H24ZM33.4235 16.6324L33.7412 12.4219H24V16.6324H33.4235Z" fill="white"/>
<path d="M24.0005 31.264V35.685L15.6358 32.9482L15.2123 27.1587H19.4476L19.6594 29.7903L24.0005 31.264ZM18.8123 16.6324H24.0005V12.4219H14.3652L15.1064 25.0535H24.0005V20.8429H19.1299L18.8123 16.6324Z" fill="#EEEEEE"/>
</svg>
