<svg width="48" height="48" viewBox="0 0 48 48" fill="none" xmlns="http://www.w3.org/2000/svg">
<path d="M15.7506 15L15.5173 22.348C15.7472 22.2376 15.9846 22.1419 16.228 22.0628C16.4978 21.9734 16.7711 21.8943 17.0472 21.8257C17.329 21.7552 17.6156 21.7012 17.9046 21.6641C18.1785 21.6283 18.4556 21.6089 18.7324 21.6077C19.1099 21.6077 19.4802 21.6485 19.8438 21.7313C20.1995 21.8093 20.5349 21.9576 20.8293 22.1671C21.1222 22.3756 21.3583 22.6513 21.5403 22.9938C21.7223 23.3352 21.8133 23.7651 21.8133 24.284C21.8133 24.6888 21.7456 25.054 21.6089 25.3763C21.4726 25.6986 21.2868 25.9682 21.0532 26.1828C20.8177 26.3999 20.5394 26.568 20.2352 26.6772C19.9168 26.792 19.5798 26.8502 19.2402 26.8489C18.6168 26.8489 18.0765 26.687 17.6228 26.3635C17.1678 26.0415 16.8419 25.6137 16.6474 25.0816L16.6215 25.0914L14.9279 26.6367C15.2658 27.1779 15.7193 27.6419 16.2576 27.9974C17.0497 28.5221 18.0249 28.7846 19.181 28.7846C19.8712 28.7846 20.5205 28.6766 21.1307 28.4623C21.7418 28.2467 22.2746 27.9363 22.7295 27.5316C23.1845 27.1268 23.545 26.6293 23.8117 26.0412C24.0787 25.4518 24.2116 24.7848 24.2116 24.0371C24.2116 23.3545 24.091 22.7506 23.8511 22.2247C23.6102 21.7 23.2755 21.2569 22.8463 20.895C22.4181 20.5344 21.914 20.259 21.336 20.0698C20.7579 19.8793 20.1307 19.7846 19.4553 19.7846C19.2081 19.7846 18.9314 19.7978 18.6266 19.8229C18.3202 19.8481 18.057 19.8922 17.8369 19.956L17.9732 17.0497H23.6077V15H15.7506ZM32.1656 18.8934V29.0888C32.1656 29.3547 32.153 29.604 32.1275 29.8386C32.1004 30.0723 32.0425 30.2783 31.9512 30.4568C31.8638 30.6285 31.7289 30.773 31.5617 30.8739C31.3917 30.9754 31.1703 31.0257 30.8986 31.0257C30.6819 31.0236 30.4662 30.9979 30.2554 30.949L30.0601 32.8862C30.1779 32.9114 30.3328 32.9377 30.5271 32.9629C30.7229 32.988 30.9184 32.9997 31.1127 32.9997C31.8149 32.9997 32.3832 32.8933 32.8186 32.6777C33.2541 32.4621 33.5982 32.1748 33.853 31.8138C34.1064 31.452 34.2774 31.0294 34.3684 30.5418C34.4618 30.0309 34.5079 29.5129 34.506 28.994V18.8934H32.1656ZM9.53715 19.0633C9.108 19.0633 8.72166 19.1102 8.37752 19.2047C8.05636 19.2921 7.74528 19.4132 7.4512 19.5665C7.17821 19.7128 6.9471 19.8757 6.75882 20.0603C6.58689 20.2242 6.43352 20.4057 6.30132 20.6015H6.24244V19.3295H4V33H6.34068V27.227H6.37878C6.6779 27.6837 7.10296 28.0443 7.6568 28.3102C8.20907 28.5761 8.81549 28.7088 9.47827 28.7088C10.193 28.7088 10.8338 28.5785 11.3992 28.3194C11.9651 28.0609 12.4462 27.7122 12.8419 27.2752C13.238 26.8391 13.5444 26.3264 13.7582 25.737C13.9723 25.1488 14.0806 24.5186 14.0806 23.8479C14.0806 23.1769 13.9701 22.5507 13.7484 21.9683C13.5271 21.3863 13.216 20.8797 12.8127 20.4494C12.4084 20.018 11.9173 19.6722 11.37 19.4335C10.8114 19.1869 10.1999 19.0633 9.53715 19.0633ZM40.4909 19.0633C40.0301 19.0622 39.5712 19.1194 39.1256 19.2335C38.7013 19.3397 38.299 19.5164 37.9364 19.7558C37.5862 19.9892 37.2958 20.2979 37.0875 20.658C36.8734 21.0257 36.7664 21.4614 36.7664 21.9683C36.7664 22.3983 36.8441 22.7589 37.0003 23.05C37.1505 23.3356 37.3633 23.5855 37.6237 23.782C37.8934 23.9829 38.1928 24.1428 38.5116 24.2564C38.8454 24.3773 39.1873 24.4756 39.5349 24.5508C40.2497 24.7151 40.7862 24.8804 41.1439 25.0445C41.5006 25.2086 41.6792 25.4806 41.6792 25.8615C41.6792 26.0639 41.6335 26.2341 41.5438 26.3742C41.4525 26.5122 41.3297 26.6257 41.182 26.706C41.0299 26.7895 40.8656 26.8501 40.6949 26.8857C40.5256 26.924 40.3523 26.9433 40.1785 26.9434C39.6716 26.9434 39.2106 26.8354 38.7935 26.6211C38.3778 26.4055 38.0409 26.1335 37.7802 25.8041L36.2402 27.2092C36.6952 27.6907 37.2673 28.0609 37.9562 28.3194C38.6326 28.577 39.3533 28.7088 40.08 28.7088C40.5882 28.7088 41.0787 28.6552 41.5523 28.5472C42.0271 28.4405 42.4427 28.2657 42.8007 28.0259C43.1599 27.7838 43.4543 27.4614 43.6593 27.0857C43.8734 26.7002 43.9802 26.2282 43.9802 25.671C43.9802 25.2279 43.8892 24.8516 43.7072 24.5416C43.5291 24.2357 43.2863 23.9702 42.995 23.7626C42.6968 23.5502 42.3687 23.3808 42.0208 23.2597C41.6736 23.1362 41.3187 23.0346 40.9581 22.9555C40.2953 22.8034 39.7909 22.655 39.4468 22.5099C39.1023 22.3636 38.9314 22.1134 38.9314 21.7586C38.9314 21.4053 39.0863 21.1514 39.3986 21.0005C39.711 20.8484 40.0542 20.7717 40.4317 20.7717C40.8611 20.7717 41.2572 20.8699 41.6212 21.0661C41.9852 21.2627 42.2705 21.4927 42.4795 21.7586L44 20.4491C43.6222 19.9812 43.1121 19.6325 42.4685 19.4049C41.835 19.1788 41.1656 19.0632 40.4909 19.0633ZM9.01102 20.9238C9.466 20.9238 9.86209 21.0088 10.2003 21.1802C10.5268 21.343 10.8131 21.5731 11.039 21.8546C11.2605 22.1364 11.4288 22.4544 11.5359 22.7936C11.6444 23.1351 11.7 23.4904 11.7006 23.8479C11.6995 24.2084 11.644 24.5669 11.5359 24.9117C11.4312 25.2552 11.2628 25.5771 11.039 25.8615C10.8177 26.1396 10.5372 26.3671 10.2003 26.5444C9.86209 26.7216 9.466 26.8103 9.01102 26.8103C8.58155 26.8103 8.19805 26.7253 7.86083 26.5539C7.52851 26.3876 7.23369 26.1582 6.9937 25.8792C6.75324 25.6019 6.56769 25.2835 6.44647 24.9402C6.32522 24.6013 6.26286 24.2451 6.26196 23.8862C6.26341 23.5242 6.32574 23.1648 6.44647 22.8224C6.68582 22.1218 7.19208 21.5374 7.86083 21.1897C8.19773 21.0125 8.58186 20.9238 9.01102 20.9238ZM27.7242 25.1006V26.5156L26.3199 26.0737L26.0466 26.8955L27.4449 27.3865L26.5828 28.5353L27.2875 29.0587L28.1707 27.921L29.0784 29.0888L29.8051 28.5761L28.943 27.3865L30.3303 26.9253L30.0573 26.1059L28.664 26.5156V25.1009L27.7242 25.1006Z" fill="#ED225D"/>
</svg>
