<svg width="69" height="48" viewBox="0 0 69 48" fill="none" xmlns="http://www.w3.org/2000/svg">
<g clip-path="url(#clip0_1080_453)">
<path d="M20.9289 23.2097C20.9289 23.2097 20.9289 23.2162 20.9289 23.2201L20.0742 26.9526C20.0281 27.1637 19.8187 27.3185 19.5764 27.3185H18.5452C18.4688 27.3185 18.4002 27.3697 18.3792 27.4431C17.427 30.6942 16.1377 32.929 14.4348 34.2706C12.986 35.413 11.2002 35.9454 8.81514 35.9454C6.67106 35.9454 5.22631 35.2516 4.00018 33.8825C2.38027 32.0726 1.70992 29.11 2.11555 25.5401C2.8478 18.8385 6.30099 12.0766 12.9532 12.0766C14.9761 12.0582 16.5644 12.6864 17.6694 13.9402C18.8375 15.2661 19.4315 17.2635 19.4341 19.8772C19.4301 20.1146 19.234 20.3061 18.9982 20.3061H14.1253C13.9528 20.3061 13.7987 20.15 13.8013 19.9782C13.7618 18.171 13.2284 17.2897 12.1695 17.2897C10.302 17.2897 9.1997 19.8418 8.61495 21.2569C7.79842 23.2332 7.38355 25.3789 7.46521 27.5166C7.5034 28.512 7.66276 29.9114 8.60179 30.491C9.43413 31.0051 10.6221 30.6641 11.3411 30.095C12.0602 29.5257 12.6384 28.5409 12.882 27.6425C12.9162 27.5179 12.919 27.4209 12.886 27.3775C12.8518 27.333 12.7569 27.3225 12.6845 27.3225H11.4333C11.299 27.3225 11.166 27.2609 11.0856 27.1611C11.0185 27.0772 10.9921 26.9736 11.0158 26.8714L11.8719 23.1323C11.914 22.9409 12.0866 22.7966 12.2986 22.7704V22.7611H20.5101C20.5299 22.7611 20.5496 22.7611 20.5681 22.7651C20.7815 22.7926 20.9316 22.992 20.9276 23.2097H20.9289Z" fill="#0AE448"/>
<path d="M35.0675 18.9193C35.0635 19.1528 34.8672 19.3443 34.6315 19.3443H30.1432C29.8495 19.3443 29.6032 19.1043 29.6032 18.8118C29.6032 17.4938 29.1502 16.8525 28.223 16.8525C27.2958 16.8525 26.6979 17.4256 26.6808 18.4262C26.6611 19.5423 27.2879 20.5561 29.0738 22.299C31.4246 24.518 32.3662 26.4839 32.3215 29.082C32.2477 33.2839 29.4083 36 25.0885 36C22.8825 36 21.1968 35.4059 20.076 34.2348C18.9382 33.0452 18.4166 31.2996 18.5259 29.0465C18.5312 28.8131 18.7261 28.623 18.9618 28.623H23.6043C23.7307 28.623 23.8558 28.6846 23.9401 28.7895C24.0125 28.88 24.0428 28.9915 24.0244 29.0964C23.973 29.9095 24.114 30.5167 24.4313 30.8525C24.6355 31.0701 24.9187 31.1804 25.2729 31.1804C26.1303 31.1804 26.6334 30.5705 26.6518 29.5082C26.6676 28.5901 26.3792 27.7849 24.8067 26.1574C22.7759 24.16 20.9544 22.097 21.0111 18.8525C21.044 16.9718 21.7868 15.2511 23.1025 14.0079C24.4932 12.6938 26.3964 12 28.6049 12C30.8175 12.0157 32.4941 12.6505 33.5884 13.8872C34.625 15.0597 35.1241 16.7528 35.0688 18.9193H35.0675Z" fill="#0AE448"/>
<path d="M48.9801 35.2099L49.009 12.8637C49.013 12.629 48.8246 12.4375 48.589 12.4375H41.6418C41.4086 12.4375 41.3059 12.6395 41.2387 12.7732L31.1808 35.0736V35.0775C31.1808 35.0775 31.1781 35.0814 31.1769 35.0827C31.0649 35.3568 31.2769 35.6506 31.572 35.6506H36.4277C36.6898 35.6506 36.8637 35.5706 36.9493 35.4041L37.9133 33.0722C38.0318 32.7614 38.0543 32.7326 38.3914 32.7326H43.0312C43.3538 32.7326 43.3605 32.7392 43.3551 33.0566L43.2511 35.2244C43.2472 35.4592 43.4355 35.6506 43.6713 35.6506H48.5771C48.7022 35.6506 48.8194 35.5982 48.897 35.5051C48.9668 35.4224 48.9959 35.3175 48.9801 35.2099ZM40.3853 27.7489C40.3405 27.7489 40.3049 27.7477 40.276 27.7451C40.2035 27.7385 40.1548 27.6689 40.1733 27.5982C40.1825 27.5653 40.1957 27.5221 40.2154 27.4683L43.695 18.806C43.7252 18.7208 43.7634 18.6368 43.8029 18.5555C43.8596 18.4388 43.928 18.4309 43.9491 18.5175C43.9676 18.5896 43.55 27.4119 43.55 27.4119C43.5172 27.7424 43.5027 27.7556 43.1787 27.7831L40.3892 27.7503H40.3827L40.3853 27.7489Z" fill="#0AE448"/>
<path d="M58.877 12.4362H55.1894C54.9945 12.4362 54.7759 12.5398 54.7245 12.7733C54.7245 12.7733 49.5921 35.1943 49.5921 35.1969C49.5698 35.3005 49.5935 35.4028 49.6619 35.488C49.7423 35.5876 49.8753 35.6494 50.0097 35.6494H54.6191C54.8667 35.6494 55.0367 35.5274 55.0827 35.3149C55.0827 35.3149 55.6411 32.7811 55.6424 32.7733C55.682 32.5753 55.6134 32.4218 55.437 32.3286C55.3541 32.2854 55.271 32.2421 55.1894 32.1989L54.39 31.7805L53.5945 31.3634C53.4918 31.3096 53.389 31.2559 53.2876 31.2021C53.2363 31.1759 53.2047 31.1234 53.206 31.0658C53.2073 30.9805 53.2785 30.911 53.364 30.911L55.89 30.9228C56.646 30.9267 57.4019 30.8729 58.1448 30.7353C63.3759 29.7634 66.8501 25.547 66.9503 19.8106C67.0358 14.9149 64.3202 12.4336 58.881 12.4336L58.877 12.4362ZM57.6219 25.7805H57.5232C57.3019 25.7805 57.2623 25.7555 57.2558 25.7476C57.2518 25.7424 58.7124 19.29 58.7137 19.2808C58.7506 19.0946 58.7493 18.987 58.6346 18.9241C58.4885 18.8428 56.3563 17.711 56.3563 17.711C56.3049 17.6834 56.2746 17.631 56.276 17.5733C56.2772 17.4893 56.347 17.4198 56.4327 17.4198H59.8042C60.8538 17.4526 61.4386 18.3969 61.411 20.01C61.3622 22.8034 60.0425 25.6821 57.6219 25.7805Z" fill="#0AE448"/>
<path d="M62.6287 35.6498C63.3873 35.6498 63.9812 35.0688 63.9812 34.2858C63.9812 33.5029 63.3873 32.9219 62.6287 32.9219C61.8701 32.9219 61.2695 33.5029 61.2695 34.2858C61.2695 35.0688 61.8687 35.6498 62.6287 35.6498ZM61.5921 34.2805C61.5921 33.6157 61.9886 33.1803 62.6287 33.1803C63.2687 33.1803 63.6586 33.6143 63.6586 34.2805C63.6586 34.9468 63.2687 35.3848 62.6287 35.3848C61.9886 35.3848 61.5921 34.9508 61.5921 34.2805ZM62.0347 35.0124H62.4653V34.4878H62.5905C62.9131 34.4878 62.7723 34.9508 62.8512 35.0124H63.2977V34.99C63.2134 34.9678 63.349 34.3868 62.9751 34.3252V34.3186C63.1568 34.2805 63.274 34.1494 63.274 33.9527C63.274 33.6708 63.0698 33.5186 62.7406 33.5186H62.0321V35.0124H62.0347ZM62.4653 34.1717V33.8215H62.6128C62.7604 33.8215 62.8447 33.8674 62.8447 33.996C62.8447 34.114 62.7604 34.1704 62.6128 34.1704H62.4653V34.1717Z" fill="#0AE448"/>
</g>
<defs>
<clipPath id="clip0_1080_453">
<rect width="65" height="24" fill="white" transform="translate(2 12)"/>
</clipPath>
</defs>
</svg>
