<svg width="48" height="48" viewBox="0 0 48 48" fill="none" xmlns="http://www.w3.org/2000/svg">
<path d="M4 18.4762C4 13.409 4 10.8755 4.98613 8.94009C5.85356 7.23767 7.23767 5.85356 8.94009 4.98613C10.8755 4 13.409 4 18.4762 4H29.5238C34.591 4 37.1245 4 39.0599 4.98613C40.7623 5.85356 42.1464 7.23767 43.0139 8.94009C44 10.8755 44 13.409 44 18.4762V29.5238C44 34.591 44 37.1245 43.0139 39.0599C42.1464 40.7623 40.7623 42.1464 39.0599 43.0139C37.1245 44 34.591 44 29.5238 44H18.4762C13.409 44 10.8755 44 8.94009 43.0139C7.23767 42.1464 5.85356 40.7623 4.98613 39.0599C4 37.1245 4 34.591 4 29.5238V18.4762Z" fill="#330000"/>
<path d="M23.3835 29.1375H17.185L15.9239 33.1557C15.8888 33.3049 15.7514 33.4107 15.6018 33.4033H12.4623C12.2833 33.4033 12.2207 33.3024 12.2745 33.1006L17.6411 17.2483C17.6949 17.0832 17.7485 16.8951 17.8022 16.6841C17.8724 16.3169 17.9083 15.9437 17.9095 15.5695C17.8942 15.459 17.9913 15.3613 18.0974 15.3768H22.3638C22.4888 15.3768 22.5604 15.4227 22.5785 15.5145L28.6697 33.1281C28.7233 33.3117 28.6697 33.4035 28.5087 33.4033H25.0203C24.8979 33.4172 24.7811 33.3334 24.752 33.2107L23.3835 29.1375ZM18.151 25.6698H22.3907C21.6941 23.2896 20.908 20.9406 20.2709 18.5418C19.5834 20.9447 18.8334 23.3378 18.151 25.6698Z" fill="#FF9A00"/>
<path d="M32.2919 18.294C32.0182 18.3053 31.7452 18.2572 31.4909 18.1529C31.2366 18.0485 31.0066 17.8903 30.816 17.6886C30.6259 17.4781 30.4783 17.2311 30.3816 16.9619C30.2849 16.6927 30.241 16.4065 30.2525 16.1198C30.2427 15.836 30.2914 15.5533 30.3955 15.2901C30.4995 15.0269 30.6565 14.7891 30.8562 14.5924C31.054 14.3977 31.2875 14.2452 31.5431 14.1436C31.7987 14.042 32.0714 13.9935 32.3455 14.0007C32.9895 14.0007 33.4949 14.1979 33.8616 14.5924C34.0467 14.7974 34.1906 15.0378 34.2849 15.2999C34.3793 15.562 34.4224 15.8407 34.4116 16.1198C34.4229 16.4076 34.3776 16.6948 34.2785 16.9643C34.1794 17.2338 34.0285 17.4801 33.8347 17.6886C33.6323 17.8933 33.3906 18.0528 33.1251 18.157C32.8596 18.2612 32.5759 18.3078 32.2919 18.294ZM30.4403 33.128V19.9728C30.4403 19.8077 30.5116 19.7251 30.655 19.7251H33.9555C34.0985 19.7251 34.1701 19.8077 34.1702 19.9728V33.128C34.1702 33.3116 34.0986 33.4034 33.9555 33.4033H30.6818C30.5209 33.4033 30.4403 33.3115 30.4403 33.128Z" fill="#FF9A00"/>
</svg>
