<svg width="48" height="48" viewBox="0 0 48 48" fill="none" xmlns="http://www.w3.org/2000/svg">
<g clip-path="url(#clip0_1080_451)">
<path d="M4.00003 23.9302C3.98256 12.9258 12.8908 4.03504 23.9476 4.0001C35.0044 3.96517 43.9651 12.9258 43.9476 23.9476C43.9476 34.9869 35.0044 43.9301 23.9651 43.9127C12.9433 43.9127 4.00003 34.9695 4.00003 23.9302ZM14.0437 28.9258C14.131 30.131 14.166 31.3537 14.3057 32.559C14.4454 33.7118 14.1834 33.4498 15.3363 33.5721C18.1136 33.904 20.9432 33.8516 23.7031 33.3974C26.7249 32.8909 29.5546 31.8952 32.0349 30.0437C34.6725 28.0699 36.2096 25.4673 36.2096 22.1311C36.2096 18.69 34.7598 15.9127 32.0349 13.8167C28.6987 11.249 24.1747 10.987 20.6987 13.1529C18.4978 14.5328 17.0655 16.6114 16 18.9171C14.5852 22.1136 14.0961 25.4673 14.0437 28.9258Z" fill="#4264FA"/>
<path d="M32.2448 21.642C30.9697 22.2708 29.7819 22.8297 28.6116 23.4236C28.3671 23.5634 28.1749 23.7555 28.0527 24C27.4588 25.1704 26.8824 26.3581 26.2885 27.5983C26.0963 27.1965 25.9217 26.8647 25.747 26.5153C25.485 25.9738 25.1706 25.4673 24.9784 24.8909C24.6465 23.8778 23.9479 23.2839 22.9697 22.9171C22.0963 22.5852 21.2754 22.1136 20.3496 21.6769C20.5068 21.5896 20.6116 21.5022 20.7164 21.4673C21.7645 20.9608 22.8125 20.4367 23.8605 19.9477C24.1749 19.8079 24.4195 19.5634 24.5592 19.249C25.1007 18.0961 25.6771 16.9433 26.271 15.7031C26.7077 16.5765 27.1618 17.3625 27.4762 18.2009C27.8256 19.2664 28.664 20.1049 29.747 20.4542C30.5679 20.7511 31.354 21.2053 32.2448 21.642Z" fill="#4365FA"/>
</g>
<defs>
<clipPath id="clip0_1080_451">
<rect width="40" height="40" fill="white" transform="translate(4 4)"/>
</clipPath>
</defs>
</svg>
