<svg width="48" height="48" viewBox="0 0 48 48" fill="none" xmlns="http://www.w3.org/2000/svg">
<path d="M42 4H6L9.17647 39.7895L24 44L38.8235 39.7895L42 4Z" fill="#0277BD"/>
<path d="M24 7.1582V40.7372L35.8588 37.3687L38.5059 7.1582H24Z" fill="#039BE5"/>
<path d="M33.6353 12.4219H24V16.6324H29.1882L28.8706 20.8429H24V25.0535H28.6588L28.3412 29.7903L24 31.264V35.685L32.3647 32.9482L33.1059 20.8429L33.6353 12.4219Z" fill="white"/>
<path d="M24.0009 12.4219V16.6324H14.5774L14.2598 12.4219H24.0009ZM19.1304 20.8429L19.3421 25.0535H24.0009V20.8429H19.1304ZM19.5539 27.1587H15.3186L15.6362 32.9482L24.0009 35.685V31.264L19.6598 29.7903L19.5539 27.1587Z" fill="#EEEEEE"/>
</svg>
