<svg width="48" height="48" viewBox="0 0 48 48" fill="none" xmlns="http://www.w3.org/2000/svg">
<path d="M38.3965 9.29246C34.7139 3.97635 27.4406 2.40064 22.1817 5.78003L12.9459 11.7171C11.6982 12.5088 10.628 13.5543 9.80374 14.7868C8.97948 16.0194 8.41927 17.4119 8.15891 18.8752C7.71834 21.3402 8.10558 23.8829 9.25932 26.1009C8.46875 27.3104 7.92954 28.6691 7.67429 30.0947C7.41118 31.5876 7.44627 33.1184 7.77749 34.5973C8.10872 36.0763 8.72942 37.4737 9.60318 38.7075C13.2866 44.0241 20.5599 45.5991 25.8179 42.2199L35.0538 36.2829C36.3016 35.4913 37.3718 34.4458 38.1961 33.2132C39.0204 31.9806 39.5805 30.5881 39.8408 29.1247C40.2813 26.6598 39.8943 24.1171 38.7412 21.8989C39.5315 20.6894 40.0705 19.3308 40.3255 17.9052C40.5888 16.4124 40.5538 14.8816 40.2226 13.4026C39.8913 11.9236 39.2704 10.5262 38.3965 9.29246Z" fill="#FF3E00"/>
<path d="M21.2799 39.2062C19.8264 39.5874 18.292 39.5095 16.8839 38.983C15.4757 38.4566 14.2617 37.507 13.4057 36.2624C12.8801 35.5205 12.5068 34.6801 12.3075 33.7907C12.1083 32.9013 12.0872 31.9807 12.2454 31.0829C12.299 30.7882 12.3728 30.4975 12.4662 30.213L12.6401 29.6781L13.1133 30.0287C14.2061 30.8385 15.4279 31.4542 16.7262 31.8493L17.0694 31.9543L17.0378 32.2999C16.9959 32.7914 17.1278 33.2821 17.4103 33.6849C17.6679 34.0598 18.0334 34.3459 18.4574 34.5046C18.8813 34.6633 19.3434 34.687 19.7811 34.5724C19.9818 34.5183 20.1731 34.4335 20.3484 34.3209L29.5845 28.3846C29.8105 28.2411 30.0044 28.0516 30.1538 27.8283C30.3032 27.6051 30.4049 27.3529 30.4523 27.0878C30.4997 26.8172 30.4932 26.5398 30.4331 26.2718C30.3731 26.0037 30.2607 25.7504 30.1026 25.5267C29.8449 25.1517 29.4793 24.8655 29.0552 24.7067C28.631 24.5479 28.1688 24.5242 27.7309 24.6386C27.5305 24.6928 27.3394 24.7775 27.1644 24.8899L23.6399 27.156C23.0604 27.5276 22.4279 27.8078 21.7644 27.9867C20.311 28.3678 18.7766 28.2899 17.3685 27.7634C15.9604 27.237 14.7463 26.2874 13.8904 25.0428C13.3648 24.3009 12.9914 23.4606 12.7922 22.5712C12.593 21.6818 12.5719 20.7612 12.7301 19.8634C12.8867 18.9834 13.2236 18.1461 13.7193 17.405C14.215 16.6639 14.8586 16.0353 15.609 15.5594L24.8443 9.62251C25.4241 9.25024 26.057 8.96976 26.721 8.79083C28.1745 8.40969 29.7088 8.4876 31.117 9.01404C32.5251 9.54048 33.7391 10.4901 34.5951 11.7346C35.1206 12.4766 35.494 13.3169 35.6932 14.2063C35.8924 15.0957 35.9136 16.0163 35.7553 16.9141C35.7015 17.2088 35.6277 17.4994 35.5346 17.784L35.3607 18.3189L34.8877 17.9689C33.795 17.1586 32.573 16.5426 31.2746 16.1475L30.9313 16.0424L30.9629 15.6969C31.0045 15.2053 30.8726 14.7148 30.5904 14.3119C30.3328 13.937 29.9674 13.6509 29.5434 13.4921C29.1194 13.3334 28.6574 13.3098 28.2197 13.4244C28.0189 13.4785 27.8276 13.5633 27.6524 13.6758L18.4162 19.6124C18.1903 19.7558 17.9964 19.9452 17.8471 20.1684C17.6978 20.3917 17.5963 20.6438 17.5491 20.9089C17.5014 21.1794 17.5078 21.4569 17.5677 21.725C17.6276 21.9931 17.7399 22.2464 17.8981 22.4702C18.1559 22.8452 18.5215 23.1313 18.9456 23.2901C19.3697 23.4489 19.8319 23.4727 20.2698 23.3582C20.4705 23.304 20.6618 23.2192 20.8371 23.1067L24.3611 20.8415C24.9404 20.4694 25.5728 20.189 26.2363 20.0102C27.6898 19.629 29.2242 19.707 30.6323 20.2334C32.0404 20.7598 33.2544 21.7095 34.1104 22.954C34.636 23.6959 35.0093 24.5363 35.2086 25.4257C35.4078 26.3151 35.4289 27.2357 35.2706 28.1334C35.114 29.0134 34.7771 29.8508 34.2814 30.592C33.7857 31.3333 33.1421 31.962 32.3918 32.4382L23.1564 38.3745C22.5767 38.7468 21.9439 39.0273 21.2799 39.2062Z" fill="white"/>
</svg>
