<svg width="56" height="48" viewBox="0 0 56 48" fill="none" xmlns="http://www.w3.org/2000/svg">
<path d="M17.2758 12L16.9725 21.7973C17.2713 21.6501 17.5799 21.5226 17.8963 21.4171C18.2471 21.2979 18.6024 21.1925 18.9614 21.101C19.3277 21.007 19.7002 20.935 20.076 20.8855C20.4321 20.8377 20.7923 20.8119 21.1521 20.8103C21.6429 20.8103 22.1242 20.8647 22.597 20.9751C23.0593 21.0791 23.4954 21.2769 23.8781 21.5561C24.2588 21.8341 24.5658 22.2017 24.8024 22.6584C25.039 23.1135 25.1573 23.6868 25.1573 24.3786C25.1573 24.9184 25.0693 25.4053 24.8916 25.8351C24.7144 26.2648 24.4729 26.6242 24.1692 26.9105C23.863 27.1998 23.5012 27.4241 23.1058 27.5696C22.6918 27.7227 22.2537 27.8003 21.8123 27.7986C21.0019 27.7986 20.2995 27.5827 19.7096 27.1513C19.1182 26.722 18.6945 26.1516 18.4416 25.4421L18.408 25.4552L16.2063 27.5156C16.6455 28.2372 17.2351 28.8559 17.9348 29.3298C18.9647 30.0294 20.2323 30.3794 21.7354 30.3794C22.6326 30.3794 23.4766 30.2355 24.2699 29.9497C25.0644 29.6623 25.7569 29.2485 26.3484 28.7087C26.9399 28.169 27.4085 27.5058 27.7552 26.7215C28.1023 25.9357 28.2751 25.0463 28.2751 24.0495C28.2751 23.1393 28.1183 22.3342 27.8064 21.633C27.4933 20.9334 27.0582 20.3425 26.5003 19.86C25.9436 19.3792 25.2883 19.012 24.5367 18.7597C23.7852 18.5058 22.9699 18.3794 22.0919 18.3794C21.7706 18.3794 21.4108 18.397 21.0145 18.4306C20.6163 18.4641 20.2741 18.523 19.988 18.608L20.1652 14.733H27.49V12H17.2758ZM38.6153 17.1912V30.7851C38.6153 31.1396 38.5989 31.472 38.5658 31.7848C38.5306 32.0964 38.4553 32.3711 38.3366 32.6091C38.223 32.838 38.0476 33.0306 37.8302 33.1652C37.6092 33.3005 37.3214 33.3676 36.9682 33.3676C36.6865 33.3648 36.406 33.3305 36.132 33.2654L35.8782 35.8483C36.0313 35.8818 36.2327 35.917 36.4852 35.9505C36.7398 35.9841 36.994 35.9996 37.2465 35.9996C38.1593 35.9996 38.8981 35.8577 39.4642 35.5703C40.0303 35.2828 40.4777 34.8997 40.8088 34.4184C41.1383 33.9359 41.3606 33.3725 41.4789 32.7224C41.6004 32.0412 41.6602 31.3506 41.6578 30.6587V17.1912H38.6153ZM9.1983 17.4177C8.6404 17.4177 8.13816 17.4803 7.69078 17.6062C7.27327 17.7228 6.86886 17.8843 6.48656 18.0887C6.13168 18.2838 5.83123 18.5009 5.58646 18.747C5.36296 18.9657 5.16357 19.2076 4.99172 19.4687H4.91518V17.7727H2V36H5.04288V28.3027H5.09241C5.48127 28.9115 6.03385 29.3924 6.75384 29.7469C7.47179 30.1014 8.26014 30.2785 9.12176 30.2785C10.0509 30.2785 10.8839 30.1047 11.619 29.7592C12.3546 29.4145 12.98 28.9496 13.4945 28.3669C14.0094 27.7855 14.4077 27.1018 14.6856 26.3159C14.964 25.5317 15.1048 24.6914 15.1048 23.7972C15.1048 22.9025 14.9611 22.0676 14.673 21.2911C14.3852 20.5151 13.9808 19.8396 13.4565 19.2659C12.9309 18.6907 12.2925 18.2296 11.581 17.9113C10.8548 17.5825 10.0599 17.4177 9.1983 17.4177ZM49.4381 17.4177C48.8392 17.4162 48.2426 17.4925 47.6633 17.6447C47.1117 17.7862 46.5887 18.0218 46.1173 18.341C45.6621 18.6522 45.2845 19.0638 45.0138 19.544C44.7355 20.0342 44.5963 20.6152 44.5963 21.2911C44.5963 21.8644 44.6974 22.3452 44.9004 22.7333C45.0956 23.1141 45.3723 23.4473 45.7109 23.7093C46.0614 23.9772 46.4506 24.1905 46.8651 24.3418C47.299 24.503 47.7435 24.6342 48.1954 24.7344C49.1246 24.9535 49.8221 25.1739 50.2871 25.3927C50.7508 25.6114 50.9829 25.9741 50.9829 26.4819C50.9829 26.7518 50.9236 26.9787 50.8069 27.1656C50.6882 27.3496 50.5286 27.5009 50.3366 27.608C50.1388 27.7193 49.9253 27.8001 49.7034 27.8476C49.4833 27.8986 49.258 27.9244 49.0321 27.9245C48.3731 27.9245 47.7738 27.7806 47.2315 27.4948C46.6912 27.2073 46.2532 26.8446 45.9143 26.4055L43.9123 28.279C44.5038 28.9209 45.2475 29.4145 46.1431 29.7592C47.0223 30.1026 47.9593 30.2785 48.904 30.2785C49.5646 30.2785 50.2023 30.2069 50.8179 30.063C51.4352 29.9207 51.9755 29.6876 52.4409 29.3679C52.9079 29.0451 53.2907 28.6152 53.5571 28.1142C53.8355 27.6002 53.9742 26.971 53.9742 26.228C53.9742 25.6372 53.8559 25.1355 53.6193 24.7221C53.3878 24.3143 53.0722 23.9603 52.6935 23.6835C52.3058 23.4002 51.8793 23.1744 51.427 23.0129C50.9757 22.8483 50.5143 22.7128 50.0456 22.6073C49.1839 22.4045 48.5282 22.2066 48.0808 22.0132C47.633 21.8182 47.4108 21.4845 47.4108 21.0114C47.4108 20.5404 47.6122 20.2019 48.0182 20.0007C48.4242 19.7979 48.8704 19.6957 49.3612 19.6957C49.9195 19.6957 50.4344 19.8265 50.9076 20.0882C51.3808 20.3503 51.7516 20.6569 52.0234 21.0114L54 19.2655C53.5088 18.6415 52.8457 18.1766 52.0091 17.8732C51.1855 17.5717 50.3152 17.4175 49.4381 17.4177ZM8.51433 19.8985C9.10579 19.8985 9.62072 20.0117 10.0603 20.2403C10.4849 20.4573 10.857 20.7641 11.1508 21.1394C11.4387 21.5152 11.6574 21.9391 11.7967 22.3914C11.9378 22.8467 12.0099 23.3206 12.0107 23.7972C12.0094 24.2779 11.9373 24.7559 11.7967 25.2156C11.6605 25.6736 11.4416 26.1028 11.1508 26.4819C10.863 26.8528 10.4983 27.1562 10.0603 27.3925C9.62072 27.6289 9.10579 27.747 8.51433 27.747C7.95601 27.747 7.45746 27.6338 7.01908 27.4052C6.58706 27.1834 6.20379 26.8776 5.89181 26.5057C5.57922 26.1359 5.338 25.7113 5.18042 25.2536C5.02279 24.8018 4.94172 24.3268 4.94055 23.8483C4.94243 23.3656 5.02346 22.8864 5.18042 22.4299C5.49157 21.4958 6.1497 20.7166 7.01908 20.253C7.45705 20.0166 7.95642 19.8985 8.51433 19.8985ZM32.8414 25.4675V27.3541L31.0159 26.7649L30.6606 27.8607L32.4784 28.5153L31.3577 30.047L32.2737 30.745L33.4219 29.228L34.6019 30.7851L35.5466 30.1014L34.4259 28.5153L36.2294 27.9004L35.8745 26.8078L34.0633 27.3541V25.4679L32.8414 25.4675Z" fill="#ED225D"/>
</svg>
